<svg xmlns="http://www.w3.org/2000/svg" viewBox="0 0 1200 630">
  <rect width="1200" height="630" fill="#F8F6F3"/>
  <g fill="none" stroke="#C5D4E7" stroke-width="4" opacity=".75"><path d="M-40 508C137 322 294 507 446 355s285 34 432-96 260-53 373 43"/><path d="M-20 149c191 121 300-54 478 48s319 105 471-19 228-79 331 11"/></g>
  <g transform="translate(96 143) scale(5.4)"><circle cx="32" cy="32" r="30" fill="#071A3D"/><g fill="none" stroke="#fff" stroke-width="4" stroke-linecap="round"><path d="M32 15v7M49 32h-7M32 49v-7M15 32h7"/><circle cx="32" cy="32" r="10" stroke-dasharray="50 13" transform="rotate(-38 32 32)"/></g><circle cx="32" cy="11" r="5" fill="#075EF2"/><circle cx="53" cy="32" r="5" fill="#FF5426"/><circle cx="32" cy="53" r="5" fill="#36B8A3"/><circle cx="11" cy="32" r="5" fill="#9358E8"/></g>
  <text x="500" y="256" fill="#071A3D" font-family="Noto Sans JP, Hiragino Sans, Yu Gothic, sans-serif" font-size="54" font-weight="800">その話題を、</text>
  <text x="500" y="338" fill="#071A3D" font-family="Noto Sans JP, Hiragino Sans, Yu Gothic, sans-serif" font-size="54" font-weight="800">数ではなく問いから読む。</text>
</svg>
